# xmcd
#
# Track frame offsets:
#	150
#	12645
#	28763
#	47418
#	69135
#	81818
#	100212
#	114431
#
# Disc length: 1795 seconds
#
# Revision: 1
# Processed by: cddbd v1.5.2PL0 Copyright (c) Steve Scherf et al.
# Submitted via: EasyCDDAExtractor 12.0.4.1
#
DISCID=5a070108
DTITLE=Willie Nelson - Old Wiskey River (Limited Edition)
DYEAR=2002
DGENRE=Country
TTITLE0=Whiskey River
TTITLE1=Just Dropped In (To See What Condition My Condition Was In)
TTITLE2=The Great Divide
TTITLE3=Sittin' On Top Of The World
TTITLE4=Playin Dominoes And Shootin' Dice
TTITLE5=Its A Dream Come True
TTITLE6=Three Days
TTITLE7=Rainbow Connection
EXTD=Came with Whiskey! how awesome is that?
EXTT0=
EXTT1=
EXTT2=
EXTT3=
EXTT4=
EXTT5=
EXTT6=
EXTT7=
PLAYORDER=
